<svg width="721.796" height="132.608" viewBox="0 0 721.796 132.608" xmlns="http://www.w3.org/2000/svg"><g id="svgGroup" stroke-linecap="round" fill-rule="evenodd" font-size="9pt" stroke="#000000" stroke-width="0" fill="#ffffff" style="stroke:#000000;stroke-width:0;fill:#ffffff"><path d="M 460.724 11.544 L 450.068 29.378 A 19.279 19.279 0 0 0 449.372 28.883 Q 448.298 28.151 446.475 27.052 A 132.821 132.821 0 0 0 446.035 26.788 Q 443.231 25.113 439.422 23.796 A 48.929 48.929 0 0 0 439.301 23.754 Q 435.416 22.422 431.198 22.422 A 26.184 26.184 0 0 0 427.539 22.662 Q 425.611 22.935 424.014 23.517 A 12.752 12.752 0 0 0 421.985 24.457 Q 418.713 26.351 418.487 29.944 A 8.645 8.645 0 0 0 418.47 30.488 Q 418.47 33.226 420.357 35.409 A 12.648 12.648 0 0 0 422.053 37.015 Q 423.701 38.327 426.129 39.553 A 74.529 74.529 0 0 0 429.33 41.067 Q 430.793 41.719 432.462 42.405 A 158.956 158.956 0 0 0 436.008 43.808 Q 441.484 45.806 446.294 48.544 A 38.52 38.52 0 0 1 454.305 54.556 A 36.13 36.13 0 0 1 454.767 55.019 Q 458.43 58.756 460.576 63.64 A 25.199 25.199 0 0 1 462.457 70.534 A 32.308 32.308 0 0 1 462.722 74.74 A 30.357 30.357 0 0 1 462.066 81.196 A 23.083 23.083 0 0 1 459.688 87.579 Q 456.654 93.018 451.437 96.57 Q 446.22 100.122 439.597 101.861 Q 432.974 103.6 425.87 103.6 A 75.664 75.664 0 0 1 416.404 103.035 A 56.28 56.28 0 0 1 407.851 101.306 A 93.866 93.866 0 0 1 402.53 99.609 Q 400.061 98.735 397.991 97.812 A 41.556 41.556 0 0 1 395.012 96.348 Q 390.16 93.702 389.179 92.808 A 2.61 2.61 0 0 1 389.166 92.796 L 400.192 74.222 A 12.136 12.136 0 0 0 400.72 74.592 Q 401.604 75.183 403.268 76.156 A 124.202 124.202 0 0 0 403.633 76.368 A 44.115 44.115 0 0 0 405.709 77.494 Q 406.874 78.088 408.215 78.699 A 83.817 83.817 0 0 0 409.886 79.439 Q 413.586 81.03 417.767 82.14 A 32.414 32.414 0 0 0 424.999 83.233 A 30.015 30.015 0 0 0 426.018 83.25 A 28.15 28.15 0 0 0 429.76 83.018 Q 431.607 82.77 433.109 82.255 A 10.798 10.798 0 0 0 436.23 80.623 A 8.77 8.77 0 0 0 438.673 77.794 Q 439.634 75.984 439.634 73.704 Q 439.634 70.522 437.488 68.006 A 15.136 15.136 0 0 0 435.484 66.08 Q 434.404 65.206 433.044 64.366 A 33.359 33.359 0 0 0 431.05 63.233 A 76.576 76.576 0 0 0 427.529 61.504 Q 424.344 60.033 420.32 58.46 Q 413.882 55.87 408.295 52.17 Q 402.708 48.47 399.23 42.92 A 21.945 21.945 0 0 1 396.418 35.833 Q 395.752 32.75 395.752 29.156 Q 395.752 20.942 400.377 14.911 A 29.345 29.345 0 0 1 410.709 6.495 A 35.348 35.348 0 0 1 412.587 5.624 Q 420.172 2.368 428.83 2.368 A 70.223 70.223 0 0 1 436.355 2.75 Q 440.056 3.15 443.278 3.967 A 40.757 40.757 0 0 1 444.74 4.366 Q 449.524 5.77 452.992 7.283 A 37.424 37.424 0 0 1 455.692 8.584 Q 458.968 10.339 460.209 11.169 A 6.328 6.328 0 0 1 460.724 11.544 Z M 296.444 64.75 L 296.444 101.824 L 273.948 101.824 L 273.948 68.45 Q 273.948 64.202 272.704 61.324 A 9.935 9.935 0 0 0 271.025 58.645 Q 268.102 55.352 263.07 55.352 Q 259.74 55.352 256.706 57.091 Q 253.672 58.83 251.785 61.975 Q 249.898 65.12 249.898 69.19 L 249.898 101.824 L 227.328 101.824 L 227.328 0 L 249.898 0 L 249.898 50.024 Q 250.518 48.163 252.32 46.281 A 18.8 18.8 0 0 1 253.561 45.103 A 20.682 20.682 0 0 1 257.006 42.699 A 28.34 28.34 0 0 1 260.739 40.959 Q 265.068 39.294 270.1 39.294 Q 276.464 39.294 282.532 41.884 Q 288.6 44.474 292.522 50.061 Q 295.961 54.961 296.385 62.563 A 39.352 39.352 0 0 1 296.444 64.75 Z M 0 101.824 L 38.628 4.144 L 60.606 4.144 L 99.16 101.824 L 75.554 101.824 L 68.45 82.214 L 30.858 82.214 L 23.68 101.824 L 0 101.824 Z M 166.13 91.982 L 166.13 132.608 L 143.856 132.608 L 143.856 41.07 L 166.352 41.07 L 166.352 49.95 A 9.368 9.368 0 0 1 167.287 48.477 Q 168.323 47.118 170.071 45.605 A 31.39 31.39 0 0 1 170.311 45.399 A 22.18 22.18 0 0 1 173.525 43.154 Q 175.438 42.042 177.785 41.107 A 25.211 25.211 0 0 1 183.868 39.56 A 32.68 32.68 0 0 1 188.108 39.294 Q 196.988 39.294 203.315 43.66 Q 209.642 48.026 213.046 55.315 Q 216.45 62.604 216.45 71.484 Q 216.45 80.364 212.824 87.653 Q 209.198 94.942 202.649 99.271 A 26.063 26.063 0 0 1 191.254 103.362 A 33.368 33.368 0 0 1 187.22 103.6 A 30.074 30.074 0 0 1 182.361 103.228 Q 179.557 102.768 177.226 101.742 A 17.899 17.899 0 0 1 176.379 101.343 A 31.575 31.575 0 0 1 173.063 99.426 Q 171.432 98.338 170.176 97.149 A 17.053 17.053 0 0 1 169.349 96.311 Q 167.385 94.176 166.538 92.764 A 6.575 6.575 0 0 1 166.13 91.982 Z M 721.574 76.22 L 677.618 76.22 Q 677.84 79.476 679.69 81.992 A 11.59 11.59 0 0 0 683.005 85 A 14.904 14.904 0 0 0 684.833 85.951 Q 688.126 87.394 692.64 87.394 Q 696.932 87.394 700.373 86.506 A 33.222 33.222 0 0 0 703.498 85.542 A 24.186 24.186 0 0 0 706.367 84.286 A 23.049 23.049 0 0 0 708.054 83.319 Q 709.425 82.449 710.326 81.548 L 719.058 95.46 Q 717.62 97.013 715.265 98.499 A 31.797 31.797 0 0 1 713.841 99.345 A 22.754 22.754 0 0 1 710.889 100.712 Q 708.335 101.695 704.998 102.416 Q 701.024 103.275 695.53 103.511 A 102.136 102.136 0 0 1 691.16 103.6 A 45.844 45.844 0 0 1 681.372 102.597 A 36.696 36.696 0 0 1 673.252 99.826 Q 665.408 96.052 660.894 88.726 A 29.517 29.517 0 0 1 657.132 78.915 A 41.437 41.437 0 0 1 656.38 70.818 A 34.95 34.95 0 0 1 657.823 60.641 A 30.977 30.977 0 0 1 660.265 54.797 Q 664.15 47.656 671.55 43.475 Q 678.95 39.294 689.384 39.294 A 45.632 45.632 0 0 1 697.831 40.038 A 33.462 33.462 0 0 1 706.589 42.92 Q 713.878 46.546 717.837 53.687 Q 721.796 60.828 721.796 71.484 A 34.021 34.021 0 0 1 721.794 71.8 Q 721.789 72.309 721.771 73.241 A 423.368 423.368 0 0 1 721.759 73.852 A 37.044 37.044 0 0 1 721.738 74.572 Q 721.698 75.549 721.613 76.035 A 2.693 2.693 0 0 1 721.574 76.22 Z M 379.028 101.824 L 356.902 101.824 L 356.902 91.982 A 6.294 6.294 0 0 1 356.442 92.805 Q 355.6 94.105 353.712 96.089 A 54.126 54.126 0 0 1 353.535 96.274 A 21.87 21.87 0 0 1 350.455 98.908 Q 348.649 100.197 346.394 101.343 A 20.47 20.47 0 0 1 340.266 103.283 A 27.146 27.146 0 0 1 336.034 103.6 A 30.776 30.776 0 0 1 327.467 102.449 A 25.891 25.891 0 0 1 320.494 99.271 Q 313.834 94.942 310.134 87.653 A 34.505 34.505 0 0 1 306.507 73.95 A 41.095 41.095 0 0 1 306.434 71.484 A 36.889 36.889 0 0 1 308.009 60.575 A 33.132 33.132 0 0 1 310.134 55.315 Q 313.834 48.026 320.494 43.66 A 26.711 26.711 0 0 1 332.65 39.461 A 33.679 33.679 0 0 1 336.034 39.294 A 30.307 30.307 0 0 1 341.028 39.686 A 22.197 22.197 0 0 1 346.024 41.107 A 29.302 29.302 0 0 1 349.44 42.804 Q 351.154 43.809 352.496 44.965 A 17.049 17.049 0 0 1 352.98 45.399 A 26.626 26.626 0 0 1 354.553 46.982 Q 355.268 47.77 355.8 48.512 A 10.704 10.704 0 0 1 356.68 49.95 L 356.68 41.07 L 379.028 41.07 L 379.028 101.824 Z M 608.428 101.824 L 586.302 101.824 L 586.302 91.982 A 6.294 6.294 0 0 1 585.842 92.805 Q 585 94.105 583.112 96.089 A 54.126 54.126 0 0 1 582.935 96.274 A 21.87 21.87 0 0 1 579.855 98.908 Q 578.049 100.197 575.794 101.343 A 20.47 20.47 0 0 1 569.666 103.283 A 27.146 27.146 0 0 1 565.434 103.6 A 30.776 30.776 0 0 1 556.867 102.449 A 25.891 25.891 0 0 1 549.894 99.271 Q 543.234 94.942 539.534 87.653 A 34.505 34.505 0 0 1 535.907 73.95 A 41.095 41.095 0 0 1 535.834 71.484 A 36.889 36.889 0 0 1 537.409 60.575 A 33.132 33.132 0 0 1 539.534 55.315 Q 543.234 48.026 549.894 43.66 A 26.711 26.711 0 0 1 562.05 39.461 A 33.679 33.679 0 0 1 565.434 39.294 A 30.307 30.307 0 0 1 570.428 39.686 A 22.197 22.197 0 0 1 575.424 41.107 A 29.302 29.302 0 0 1 578.84 42.804 Q 580.554 43.809 581.896 44.965 A 17.049 17.049 0 0 1 582.38 45.399 A 26.626 26.626 0 0 1 583.953 46.982 Q 584.668 47.77 585.2 48.512 A 10.704 10.704 0 0 1 586.08 49.95 L 586.08 41.07 L 608.428 41.07 L 608.428 101.824 Z M 519.702 82.14 L 529.988 97.384 A 10.644 10.644 0 0 1 529.29 97.9 Q 528.469 98.461 527.206 99.166 A 57.748 57.748 0 0 1 525.918 99.863 Q 523.553 101.106 520.22 102.076 A 49.019 49.019 0 0 1 518.703 102.49 Q 514.374 103.6 508.824 103.6 A 46.663 46.663 0 0 1 499.306 102.671 A 36.108 36.108 0 0 1 490.472 99.641 Q 482.554 95.682 478.151 88.43 A 30.157 30.157 0 0 1 474.116 76.847 A 38.98 38.98 0 0 1 473.748 71.41 A 36.928 36.928 0 0 1 474.715 62.768 A 28.747 28.747 0 0 1 478.151 54.39 Q 482.554 47.212 490.472 43.253 A 36.93 36.93 0 0 1 501.352 39.851 A 48.321 48.321 0 0 1 508.824 39.294 A 44.816 44.816 0 0 1 513.937 39.572 A 33.057 33.057 0 0 1 518.629 40.441 A 52.937 52.937 0 0 1 521.92 41.422 Q 523.46 41.939 524.772 42.506 A 27.468 27.468 0 0 1 525.918 43.031 A 42.626 42.626 0 0 1 527.287 43.727 Q 529.174 44.733 530.062 45.51 L 519.554 60.902 A 5.755 5.755 0 0 0 519.242 60.615 Q 518.874 60.298 518.289 59.869 A 35.702 35.702 0 0 0 517.667 59.422 A 10.885 10.885 0 0 0 516.334 58.63 Q 515.639 58.277 514.816 57.961 A 20.743 20.743 0 0 0 514.152 57.72 Q 512.006 56.98 509.046 56.98 Q 505.42 56.98 502.275 58.83 Q 499.13 60.68 497.206 63.936 A 13.857 13.857 0 0 0 495.374 69.611 A 17.221 17.221 0 0 0 495.282 71.41 Q 495.282 75.628 497.206 78.921 Q 499.13 82.214 502.275 84.064 Q 505.42 85.914 509.046 85.914 A 20.294 20.294 0 0 0 511.973 85.715 Q 513.487 85.494 514.749 85.027 A 10.486 10.486 0 0 0 516.002 84.471 A 45.091 45.091 0 0 0 517.26 83.784 Q 518.98 82.806 519.702 82.14 Z M 129.5 0 L 129.5 101.824 L 106.93 101.824 L 106.93 0 L 129.5 0 Z M 645.206 0 L 645.206 101.824 L 622.636 101.824 L 622.636 0 L 645.206 0 Z M 49.58 30.784 L 38.258 62.826 L 61.124 62.826 L 49.802 30.784 L 49.58 30.784 Z M 194.472 71.484 A 15.912 15.912 0 0 0 193.82 66.863 A 13.98 13.98 0 0 0 192.622 64.047 Q 190.772 60.754 187.627 58.867 A 13.35 13.35 0 0 0 181.077 56.988 A 15.991 15.991 0 0 0 180.56 56.98 A 15.037 15.037 0 0 0 176.027 57.645 A 13.343 13.343 0 0 0 173.271 58.867 Q 170.052 60.754 168.202 64.047 A 14.535 14.535 0 0 0 166.402 70.147 A 17.685 17.685 0 0 0 166.352 71.484 A 15.912 15.912 0 0 0 167.004 76.105 A 13.98 13.98 0 0 0 168.202 78.921 Q 170.052 82.214 173.271 84.064 A 14.009 14.009 0 0 0 179.305 85.869 A 17.08 17.08 0 0 0 180.56 85.914 A 14.273 14.273 0 0 0 185.32 85.136 A 13.091 13.091 0 0 0 187.627 84.064 Q 190.772 82.214 192.622 78.921 A 14.535 14.535 0 0 0 194.422 72.821 A 17.685 17.685 0 0 0 194.472 71.484 Z M 328.486 71.484 A 15.298 15.298 0 0 0 329.2 76.218 A 13.695 13.695 0 0 0 330.41 78.921 Q 332.334 82.214 335.553 84.064 A 14.023 14.023 0 0 0 342.45 85.912 A 16.49 16.49 0 0 0 342.694 85.914 A 15.202 15.202 0 0 0 346.691 85.407 A 12.686 12.686 0 0 0 349.872 84.064 Q 352.98 82.214 354.793 78.921 A 14.705 14.705 0 0 0 356.542 73.008 A 17.924 17.924 0 0 0 356.606 71.484 A 16.241 16.241 0 0 0 355.984 66.92 A 14.14 14.14 0 0 0 354.793 64.047 Q 352.98 60.754 349.872 58.867 A 13.014 13.014 0 0 0 344.429 57.07 A 16.305 16.305 0 0 0 342.694 56.98 Q 338.772 56.98 335.553 58.867 Q 332.334 60.754 330.41 64.047 A 14.198 14.198 0 0 0 328.516 70.457 A 17.195 17.195 0 0 0 328.486 71.484 Z M 557.886 71.484 A 15.298 15.298 0 0 0 558.6 76.218 A 13.695 13.695 0 0 0 559.81 78.921 Q 561.734 82.214 564.953 84.064 A 14.023 14.023 0 0 0 571.85 85.912 A 16.49 16.49 0 0 0 572.094 85.914 A 15.202 15.202 0 0 0 576.091 85.407 A 12.686 12.686 0 0 0 579.272 84.064 Q 582.38 82.214 584.193 78.921 A 14.705 14.705 0 0 0 585.942 73.008 A 17.924 17.924 0 0 0 586.006 71.484 A 16.241 16.241 0 0 0 585.384 66.92 A 14.14 14.14 0 0 0 584.193 64.047 Q 582.38 60.754 579.272 58.867 A 13.014 13.014 0 0 0 573.829 57.07 A 16.305 16.305 0 0 0 572.094 56.98 Q 568.172 56.98 564.953 58.867 Q 561.734 60.754 559.81 64.047 A 14.198 14.198 0 0 0 557.916 70.457 A 17.195 17.195 0 0 0 557.886 71.484 Z M 678.136 64.454 L 700.632 64.454 A 10.713 10.713 0 0 0 699.809 60.703 A 12.889 12.889 0 0 0 699.374 59.755 A 9.69 9.69 0 0 0 696.256 56.199 A 11.626 11.626 0 0 0 695.822 55.907 Q 693.454 54.39 689.754 54.39 A 15.796 15.796 0 0 0 686.937 54.628 Q 685.257 54.933 683.887 55.627 A 9.56 9.56 0 0 0 683.501 55.833 A 10.938 10.938 0 0 0 681.015 57.726 A 9.45 9.45 0 0 0 679.616 59.57 Q 678.284 61.864 678.136 64.454 Z" vector-effect="non-scaling-stroke"/></g></svg>